<svg width="36" height="36" viewBox="0 0 36 36" fill="none" xmlns="http://www.w3.org/2000/svg">
<circle cx="18" cy="18" r="18" fill="#5559E1"/>
<path d="M27.2571 12.7543H25.5291C26.0229 12.1618 26.3314 11.4213 26.3314 10.5943C26.3314 8.71818 24.8133 7.20001 22.9371 7.20001C20.8635 7.20001 19.0368 8.29853 18 9.92778C17.4728 9.09466 16.744 8.40793 15.881 7.93114C15.0181 7.45435 14.0488 7.20289 13.0629 7.20001C11.1867 7.20001 9.66857 8.71818 9.66857 10.5943C9.66857 11.4213 9.97714 12.1618 10.4709 12.7543H8.74286C7.8912 12.7543 7.2 13.4455 7.2 14.2972V17.3829C7.2 18.1234 7.73074 18.7159 8.43429 18.864V27.2572C8.43429 28.1088 9.12549 28.8 9.97714 28.8H26.0229C26.8745 28.8 27.5657 28.1088 27.5657 27.2572V18.864C28.2693 18.7159 28.8 18.1234 28.8 17.3829V14.2972C28.8 13.4455 28.1088 12.7543 27.2571 12.7543ZM26.9486 17.0743H18.9257V14.6057H26.9486V17.0743ZM22.9371 9.05144C23.3463 9.05144 23.7388 9.21399 24.0281 9.50333C24.3175 9.79268 24.48 10.1851 24.48 10.5943C24.48 11.0035 24.3175 11.3959 24.0281 11.6853C23.7388 11.9746 23.3463 12.1372 22.9371 12.1372H19.0368C19.4565 10.3721 21.0487 9.05144 22.9371 9.05144ZM13.0629 9.05144C14.9513 9.05144 16.5435 10.3721 16.9632 12.1372H13.0629C12.6537 12.1372 12.2612 11.9746 11.9719 11.6853C11.6826 11.3959 11.52 11.0035 11.52 10.5943C11.52 10.1851 11.6826 9.79268 11.9719 9.50333C12.2612 9.21399 12.6537 9.05144 13.0629 9.05144ZM9.05143 14.6057H17.0743V17.0743H9.05143V14.6057ZM10.2857 18.9257H17.0743V26.9486H10.2857V18.9257ZM25.7143 26.9486H18.9257V18.9257H25.7143V26.9486Z" fill="white"/>
</svg>
