<svg width="16" height="16" viewBox="0 0 16 16" fill="none" xmlns="http://www.w3.org/2000/svg">
<g clip-path="url(#clip0_4036_618)">
<path d="M15.2833 3.43971V12.9918C15.2833 13.5339 14.8702 13.947 14.3281 13.947H13.3729V5.27801L7.64167 9.39496L1.91042 5.27801V13.947H0.955208C0.413128 13.947 0 13.5339 0 12.9918V3.43971C0 3.16843 0.102207 2.92963 0.273667 2.76056C0.362917 2.67115 0.46926 2.60062 0.586353 2.5532C0.703446 2.50577 0.828892 2.48241 0.955208 2.4845H1.27377L7.64167 7.1015L14.0096 2.4845H14.3281C14.5994 2.4845 14.8382 2.58671 15.0097 2.76056C15.1811 2.92963 15.2833 3.16843 15.2833 3.43971Z" fill="white"/>
</g>
<defs>
<clipPath id="clip0_4036_618">
<rect width="15.2833" height="15.2833" fill="white" transform="translate(0 0.575195)"/>
</clipPath>
</defs>
</svg>
