<svg width="28" height="28" viewBox="0 0 28 28" fill="none" xmlns="http://www.w3.org/2000/svg">
<path d="M19.1042 7.1766C19.1042 6.81469 19.248 6.4676 19.5039 6.21169C19.7598 5.95578 20.1069 5.81201 20.4688 5.81201C20.8307 5.81201 21.1778 5.95578 21.4337 6.21169C21.6896 6.4676 21.8334 6.81469 21.8334 7.1766C21.8334 7.53851 21.6896 7.88559 21.4337 8.1415C21.1778 8.39741 20.8307 8.54118 20.4688 8.54118C20.1069 8.54118 19.7598 8.39741 19.5039 8.1415C19.248 7.88559 19.1042 7.53851 19.1042 7.1766Z" fill="#7E94FF"/>
<path fill-rule="evenodd" clip-rule="evenodd" d="M13.6458 7.51807C11.9268 7.51807 10.2781 8.20097 9.06253 9.41653C7.84696 10.6321 7.16406 12.2808 7.16406 13.9998C7.16406 15.7189 7.84696 17.3676 9.06253 18.5831C10.2781 19.7987 11.9268 20.4816 13.6458 20.4816C15.3649 20.4816 17.0136 19.7987 18.2291 18.5831C19.4447 17.3676 20.1276 15.7189 20.1276 13.9998C20.1276 12.2808 19.4447 10.6321 18.2291 9.41653C17.0136 8.20097 15.3649 7.51807 13.6458 7.51807ZM9.21094 13.9998C9.21094 12.8236 9.67818 11.6956 10.5099 10.8639C11.3416 10.0322 12.4696 9.56494 13.6458 9.56494C14.822 9.56494 15.9501 10.0322 16.7818 10.8639C17.6135 11.6956 18.0807 12.8236 18.0807 13.9998C18.0807 15.176 17.6135 16.3041 16.7818 17.1358C15.9501 17.9675 14.822 18.4347 13.6458 18.4347C12.4696 18.4347 11.3416 17.9675 10.5099 17.1358C9.67818 16.3041 9.21094 15.176 9.21094 13.9998Z" fill="#7E94FF"/>
<path fill-rule="evenodd" clip-rule="evenodd" d="M20.8208 1.4909C16.0521 0.962018 11.2395 0.962018 6.47083 1.4909C3.72529 1.79793 1.50784 3.96079 1.1858 6.71998C0.621009 11.5569 0.621009 16.4431 1.1858 21.2801C1.50784 24.0393 3.72393 26.2021 6.47083 26.5092C11.2396 27.0369 16.052 27.0369 20.8208 26.5092C23.5663 26.2021 25.7838 24.0393 26.1058 21.2801C26.6706 16.4431 26.6706 11.5569 26.1058 6.71998C25.7838 3.96079 23.5677 1.79793 20.8208 1.4909ZM6.69735 3.52413C11.3155 3.01201 15.9761 3.01201 20.5943 3.52413C22.4092 3.72881 23.8624 5.16026 24.074 6.95878C24.6213 11.637 24.6213 16.3631 24.074 21.0413C23.9646 21.9215 23.5616 22.7391 22.9302 23.3621C22.2988 23.9851 21.4759 24.377 20.5943 24.4746C15.9761 24.9867 11.3155 24.9867 6.69735 24.4746C5.81575 24.377 4.99278 23.9851 4.3614 23.3621C3.73001 22.7391 3.32707 21.9215 3.21766 21.0413C2.67027 16.3631 2.67027 11.637 3.21766 6.95878C3.32707 6.07857 3.73001 5.26094 4.3614 4.63797C4.99278 4.015 5.81575 3.62171 6.69735 3.52413Z" fill="#7E94FF"/>
</svg>
